<?xml version="1.0" encoding="utf-8"?>
<?xml-stylesheet type="text/xsl" href="rss1.xsl"?>
<rss version="2.0" xmlns:atom="http://www.w3.org/2005/Atom" xmlns:content="http://purl.org/rss/1.0/modules/content/" xmlns:dc="http://purl.org/dc/elements/1.1/" xmlns:media="http://search.yahoo.com/mrss/">
<channel>
 <title>Getty</title>
 <link>http://www.gettyimg.com/</link>
 <atom:link href="http://www.gettyimg.com/" rel="self" type="application/rss+xml" />

 
                <item>
                <title><![CDATA[【Music Videos】Dua Lipa - Dance The Night (From Barbie The Album) [1080P AM WEB-DL H.264 DDP 5.1] - By RK✪]]></title>
                <link><![CDATA[https://sharemania.us/threads/dua-lipa-dance-the-night-from-barbie-the-album-1080p-am-web-dl-h-264-ddp-5-1-by-rk%E2%9C%AA.222014/]]></link>
                <description><![CDATA[<article>
<blockquote class="messageText SelectQuoteContainer ugc baseHtml">
<b>Dua Lipa - Dance The Night (From Barbie The Album) [1080P AM WEB-DL <b>H.264 </b>DDP 5.1] (Audio from Dolby Atmos Version of the Track) - By RK✪<br>
<br>
<i><span style="color: #0000ff">Hear The Difference!!</span></i></b><br>
<br>
<div class="bbCodeBlock bbCodeCode">
<div class="type">Code:</div>
<pre>Media Info:
Format                      : Matroska
Format version              : Version 4
File size                   : 278 MiB
Duration                    : 3 min 33 s
Overall bit rate            : 10.9 Mb/s
Frame rate                  : 23.976 FPS
Movie name                  : Dua Lipa - Dance The Night (From "Barbie The Album") - By RK✪
Encoded date                : 2023-06-04 10:58:34 UTC
Writing application         : mkvmerge v75.0.0 ('Goliath') 64-bit
Writing library             : libebml v1.4.4 + libmatroska v1.7.1
Video
ID                          : 1
Format                      : AVC
Format/Info                 : Advanced Video Codec
Format profile              : High@L4
Format settings             : CABAC / 4 Ref Frames
Format settings, CABAC      : Yes
Format settings, Reference  : 4 frames
Codec ID                    : V_MPEG4/ISO/AVC
Duration                    : 3 min 33 s
Bit rate                    : 9 629 kb/s
Width                       : 1 920 pixels
Height                      : 1 080 pixels
Display aspect ratio        : 16:9
Frame rate mode             : Constant
Frame rate                  : 23.976 (24000/1001) FPS
Color space                 : YUV
Chroma subsampling          : 4:2:0
Bit depth                   : 8 bits
Scan type                   : Progressive
Bits/(Pixel*Frame)          : 0.194
Stream size                 : 245 MiB (88%)
Title                       : - By RK✪
Default                     : Yes
Forced                      : No
Color range                 : Limited
Color primaries             : BT.709
Transfer characteristics    : BT.709
Matrix coefficients         : BT.709
Audio #1
ID                          : 2
Format                      : E-AC-3
Format/Info                 : Enhanced AC-3
Commercial name             : Dolby Digital Plus
Codec ID                    : A_EAC3
Duration                    : 3 min 33 s
Bit rate mode               : Constant
Bit rate                    : 1 024 kb/s
Channel(s)                  : 6 channels
Channel layout              : L R C LFE Ls Rs
Sampling rate               : 48.0 kHz
Frame rate                  : 31.250 FPS (1536 SPF)
Compression mode            : Lossy
Stream size                 : 26.1 MiB (9%)
Title                       : - By RK✪
Language                    : English
Service kind                : Complete Main
Default                     : Yes
Forced                      : No
Audio #2
ID                          : 3
Format                      : AAC LC
Format/Info                 : Advanced Audio Codec Low Complexity
Codec ID                    : A_AAC-2
Duration                    : 3 min 33 s
Bit rate                    : 265 kb/s
Channel(s)                  : 2 channels
Channel layout              : L R
Sampling rate               : 48.0 kHz
Frame rate                  : 46.875 FPS (1024 SPF)
Compression mode            : Lossy
Stream size                 : 6.77 MiB (2%)
Title                       : - By RK✪
Language                    : English
Default                     : No
Forced                      : No
Text
ID                          : 4
Format                      : UTF-8
Codec ID                    : S_TEXT/UTF8
Codec ID/Info               : UTF-8 Plain Text
Duration                    : 2 min 45 s
Bit rate                    : 97 b/s
Frame rate                  : 0.284 FPS
Count of elements           : 47
Stream size                 : 1.97 KiB (0%)
Title                       : - By RK✪
Language                    : English
Default                     : Yes
Forced                      : No
</pre>
</div><b><span style="color: #ff0000">Password:</span></b><br>
<br>
<div class="bbCodeBlock bbCodeVfcHH HiddenContent">
<div class="attribution type">Hidden Content:</div>
<blockquote>You must reply before you can see the hidden data contained here.</blockquote>
</div><b><span style="color: #00b300">Link:</span></b><br>
<br>
<div class="bbCodeBlock bbCodeVfcHH HiddenContent">
<div class="attribution type">Hidden Content:</div>
<blockquote>You must reply before you can see the hidden data contained here.</blockquote>
</div>
<div class="messageTextEndMarker">&nbsp;</div>
</blockquote>
</article>]]></description>
                <author><![CDATA[RK94]]></author>
                </item>

                </channel></rss>